<mxfile host="app.diagrams.net" agent="Mozilla/5.0 (Windows NT 10.0; Win64; x64) AppleWebKit/537.36 (KHTML, like Gecko) Chrome/128.0.0.0 Safari/537.36" version="24.7.16">
  <diagram name="Page-1" id="pnXQIGjVYqBVtSBuB-0N">
    <mxGraphModel dx="1357" dy="1164" grid="0" gridSize="10" guides="1" tooltips="1" connect="1" arrows="1" fold="1" page="0" pageScale="1" pageWidth="827" pageHeight="1169" math="0" shadow="0">
      <root>
        <mxCell id="0" />
        <mxCell id="1" parent="0" />
        <mxCell id="UE2MkgBfCqKPipeSORct-2" value="" style="shape=table;startSize=0;container=1;collapsible=0;childLayout=tableLayout;" vertex="1" parent="1">
          <mxGeometry x="58" y="-25" width="409" height="243" as="geometry" />
        </mxCell>
        <mxCell id="UE2MkgBfCqKPipeSORct-3" value="" style="shape=tableRow;horizontal=0;startSize=0;swimlaneHead=0;swimlaneBody=0;strokeColor=inherit;top=0;left=0;bottom=0;right=0;collapsible=0;dropTarget=0;fillColor=none;points=[[0,0.5],[1,0.5]];portConstraint=eastwest;" vertex="1" parent="UE2MkgBfCqKPipeSORct-2">
          <mxGeometry width="409" height="243" as="geometry" />
        </mxCell>
        <mxCell id="UE2MkgBfCqKPipeSORct-4" value="" style="shape=partialRectangle;html=1;whiteSpace=wrap;connectable=0;strokeColor=#6c8ebf;overflow=hidden;fillColor=#dae8fc;top=0;left=0;bottom=0;right=0;pointerEvents=1;" vertex="1" parent="UE2MkgBfCqKPipeSORct-3">
          <mxGeometry width="48" height="243" as="geometry">
            <mxRectangle width="48" height="243" as="alternateBounds" />
          </mxGeometry>
        </mxCell>
        <mxCell id="UE2MkgBfCqKPipeSORct-5" value="" style="shape=partialRectangle;html=1;whiteSpace=wrap;connectable=0;strokeColor=#666666;overflow=hidden;fillColor=#f5f5f5;top=0;left=0;bottom=0;right=0;pointerEvents=1;fontColor=#333333;" vertex="1" parent="UE2MkgBfCqKPipeSORct-3">
          <mxGeometry x="48" width="45" height="243" as="geometry">
            <mxRectangle width="45" height="243" as="alternateBounds" />
          </mxGeometry>
        </mxCell>
        <mxCell id="UE2MkgBfCqKPipeSORct-6" value="" style="shape=partialRectangle;html=1;whiteSpace=wrap;connectable=0;strokeColor=inherit;overflow=hidden;fillColor=none;top=0;left=0;bottom=0;right=0;pointerEvents=1;" vertex="1" parent="UE2MkgBfCqKPipeSORct-3">
          <mxGeometry x="93" width="316" height="243" as="geometry">
            <mxRectangle width="316" height="243" as="alternateBounds" />
          </mxGeometry>
        </mxCell>
      </root>
    </mxGraphModel>
  </diagram>
</mxfile>
